<svg width="142" height="52" viewBox="0 0 142 52" fill="none" xmlns="http://www.w3.org/2000/svg">
<path opacity="0.5" d="M52.0157 0.35129L39.286 47.8829C39.2212 48.0986 38.9623 48.1634 38.8113 48.0123L30.2888 39.4899L36.6753 15.6701C36.74 15.4544 36.5458 15.2602 36.3301 15.3249L12.5103 21.7114L4.03104 13.2321C3.88001 13.081 3.94474 12.8221 4.1605 12.7574L51.6705 0.00607603C51.8863 -0.0370757 52.0804 0.157107 52.0157 0.35129Z" fill="#00B37E"/>
<path opacity="0.5" d="M30.2885 39.49L27.009 51.7882C26.9442 52.004 26.6853 52.0687 26.5343 51.9177L0.0823113 25.4873C-0.0687196 25.3362 -0.00399244 25.0773 0.211766 25.0126L12.51 21.7115L30.2885 39.49Z" fill="#00B37E"/>
<path d="M36.6752 15.67L30.2887 39.4897L12.5103 21.7112L36.33 15.3247C36.5457 15.26 36.7399 15.4542 36.6752 15.67Z" fill="#00B37E"/>
<path d="M67.622 45.6314C67.622 45.4246 67.576 45.2334 67.4839 45.0576C67.3969 44.8767 67.2153 44.7139 66.939 44.5691C66.6678 44.4192 66.2585 44.29 65.711 44.1814C65.2505 44.0832 64.8335 43.9669 64.46 43.8325C64.0916 43.6981 63.777 43.5353 63.516 43.344C63.2602 43.1527 63.0632 42.9279 62.9251 42.6694C62.7869 42.411 62.7179 42.1086 62.7179 41.7622C62.7179 41.4314 62.7895 41.1187 62.9328 40.824C63.0811 40.5294 63.2884 40.2683 63.5544 40.0409C63.8256 39.8134 64.1505 39.6351 64.5291 39.5059C64.9077 39.3766 65.3298 39.312 65.7954 39.312C66.4606 39.312 67.0285 39.4309 67.4992 39.6687C67.97 39.9065 68.3307 40.2244 68.5814 40.6224C68.8321 41.0153 68.9574 41.4521 68.9574 41.9328H67.5376C67.5376 41.7002 67.4685 41.4753 67.3304 41.2582C67.1974 41.0359 67.0004 40.8524 66.7394 40.7077C66.4836 40.563 66.1689 40.4906 65.7954 40.4906C65.4015 40.4906 65.0817 40.5526 64.8361 40.6767C64.5956 40.7956 64.4191 40.9481 64.3065 41.1342C64.1991 41.3203 64.1454 41.5167 64.1454 41.7235C64.1454 41.8785 64.171 42.0181 64.2221 42.1422C64.2784 42.2611 64.3756 42.3722 64.5138 42.4756C64.6519 42.5738 64.8463 42.6668 65.097 42.7547C65.3477 42.8426 65.6675 42.9305 66.0564 43.0183C66.7369 43.1734 67.2971 43.3595 67.7372 43.5766C68.1772 43.7937 68.5046 44.0599 68.7195 44.3753C68.9344 44.6906 69.0419 45.0731 69.0419 45.5228C69.0419 45.8898 68.9651 46.2258 68.8116 46.5308C68.6632 46.8358 68.4458 47.0994 68.1593 47.3217C67.8779 47.5388 67.5402 47.7094 67.1462 47.8335C66.7573 47.9524 66.3199 48.0118 65.8338 48.0118C65.1022 48.0118 64.4831 47.88 63.9765 47.6164C63.47 47.3527 63.0863 47.0116 62.8253 46.5929C62.5644 46.1742 62.4339 45.7322 62.4339 45.267H63.8614C63.8819 45.6598 63.9944 45.9726 64.1991 46.2052C64.4038 46.4326 64.6545 46.5954 64.9512 46.6937C65.248 46.7867 65.5422 46.8332 65.8338 46.8332C66.2227 46.8332 66.5476 46.7815 66.8085 46.6782C67.0746 46.5748 67.2767 46.4326 67.4148 46.2517C67.553 46.0708 67.622 45.864 67.622 45.6314Z" fill="white"/>
<path d="M72.3267 35.9468V47.8567H70.9068V35.9468H72.3267ZM71.989 43.344L71.398 43.3207C71.4031 42.747 71.4876 42.2171 71.6513 41.7312C71.815 41.2401 72.0453 40.8137 72.342 40.4518C72.6388 40.09 72.9918 39.8108 73.4011 39.6144C73.8156 39.4128 74.2735 39.312 74.7749 39.312C75.1842 39.312 75.5526 39.3689 75.8801 39.4826C76.2075 39.5911 76.4864 39.7669 76.7166 40.0099C76.952 40.2528 77.1311 40.5681 77.2539 40.9558C77.3767 41.3383 77.4381 41.8062 77.4381 42.3593V47.8567H76.0105V42.3438C76.0105 41.9044 75.9466 41.5529 75.8187 41.2892C75.6908 41.0204 75.504 40.8266 75.2584 40.7077C75.0128 40.5836 74.711 40.5216 74.3528 40.5216C73.9998 40.5216 73.6774 40.5966 73.3858 40.7465C73.0993 40.8964 72.8511 41.1031 72.6413 41.3668C72.4367 41.6304 72.2755 41.9328 72.1578 42.274C72.0453 42.61 71.989 42.9667 71.989 43.344Z" fill="white"/>
<path d="M79.1879 43.755V43.5766C79.1879 42.9718 79.2749 42.411 79.4488 41.894C79.6228 41.3719 79.8735 40.9196 80.201 40.5371C80.5284 40.1494 80.925 39.8496 81.3906 39.6377C81.8562 39.4206 82.378 39.312 82.9562 39.312C83.5395 39.312 84.0639 39.4206 84.5295 39.6377C85.0002 39.8496 85.3993 40.1494 85.7268 40.5371C86.0594 40.9196 86.3126 41.3719 86.4866 41.894C86.6606 42.411 86.7475 42.9718 86.7475 43.5766V43.755C86.7475 44.3598 86.6606 44.9206 86.4866 45.4375C86.3126 45.9545 86.0594 46.4068 85.7268 46.7945C85.3993 47.177 85.0028 47.4768 84.5372 47.6939C84.0767 47.9058 83.5548 48.0118 82.9716 48.0118C82.3883 48.0118 81.8638 47.9058 81.3982 47.6939C80.9326 47.4768 80.5335 47.177 80.201 46.7945C79.8735 46.4068 79.6228 45.9545 79.4488 45.4375C79.2749 44.9206 79.1879 44.3598 79.1879 43.755ZM80.6077 43.5766V43.755C80.6077 44.1737 80.6563 44.5691 80.7535 44.9413C80.8508 45.3083 80.9966 45.634 81.191 45.9183C81.3906 46.2026 81.6387 46.4274 81.9355 46.5929C82.2322 46.7531 82.5776 46.8332 82.9716 46.8332C83.3604 46.8332 83.7007 46.7531 83.9923 46.5929C84.2891 46.4274 84.5346 46.2026 84.7291 45.9183C84.9235 45.634 85.0693 45.3083 85.1665 44.9413C85.2689 44.5691 85.32 44.1737 85.32 43.755V43.5766C85.32 43.1631 85.2689 42.7728 85.1665 42.4058C85.0693 42.0336 84.9209 41.7054 84.7214 41.4211C84.527 41.1316 84.2814 40.9041 83.9846 40.7387C83.693 40.5733 83.3502 40.4906 82.9562 40.4906C82.5674 40.4906 82.2245 40.5733 81.9278 40.7387C81.6361 40.9041 81.3906 41.1316 81.191 41.4211C80.9966 41.7054 80.8508 42.0336 80.7535 42.4058C80.6563 42.7728 80.6077 43.1631 80.6077 43.5766Z" fill="white"/>
<path d="M89.9479 41.0799V51.0823H88.5204V39.4671H89.8251L89.9479 41.0799ZM95.5428 43.5921V43.755C95.5428 44.3649 95.4712 44.931 95.3279 45.453C95.1847 45.97 94.9749 46.4197 94.6986 46.8022C94.4274 47.1847 94.0923 47.482 93.6932 47.6939C93.2941 47.9058 92.8362 48.0118 92.3194 48.0118C91.7924 48.0118 91.3268 47.9239 90.9226 47.7482C90.5184 47.5724 90.1756 47.3166 89.8942 46.9806C89.6128 46.6446 89.3877 46.2414 89.2188 45.771C89.0551 45.3006 88.9425 44.7707 88.8811 44.1814V43.313C88.9425 42.6927 89.0576 42.137 89.2265 41.6459C89.3953 41.1548 89.6179 40.7361 89.8942 40.3898C90.1756 40.0383 90.5158 39.7721 90.9149 39.5911C91.314 39.4051 91.7745 39.312 92.2964 39.312C92.8183 39.312 93.2813 39.4154 93.6855 39.6222C94.0897 39.8238 94.43 40.1132 94.7063 40.4906C94.9826 40.8679 95.1898 41.3203 95.3279 41.8475C95.4712 42.3696 95.5428 42.9511 95.5428 43.5921ZM94.1153 43.755V43.5921C94.1153 43.1734 94.0718 42.7806 93.9848 42.4135C93.8979 42.0414 93.7623 41.7157 93.5781 41.4366C93.399 41.1523 93.1687 40.93 92.8873 40.7697C92.6059 40.6043 92.2708 40.5216 91.8819 40.5216C91.5238 40.5216 91.2117 40.5836 90.9456 40.7077C90.6847 40.8318 90.4621 40.9998 90.2779 41.2117C90.0937 41.4185 89.9428 41.6563 89.8251 41.9251C89.7125 42.1887 89.6281 42.4627 89.5718 42.747V44.7552C89.6742 45.117 89.8174 45.4582 90.0016 45.7787C90.1858 46.094 90.4314 46.3499 90.7384 46.5463C91.0454 46.7376 91.4317 46.8332 91.8973 46.8332C92.281 46.8332 92.611 46.7531 92.8873 46.5929C93.1687 46.4274 93.399 46.2026 93.5781 45.9183C93.7623 45.634 93.8979 45.3083 93.9848 44.9413C94.0718 44.5691 94.1153 44.1737 94.1153 43.755Z" fill="white"/>
<path d="M62.5938 15.8942V13.1818H74.2731V15.8942H70.0831V27H66.7905V15.8942H62.5938ZM82.2583 18.8224V21.3594H75.862V18.8224H82.2583ZM92.0569 17.3246C92.0119 16.8298 91.8118 16.4452 91.4564 16.1708C91.1056 15.8919 90.604 15.7525 89.9518 15.7525C89.52 15.7525 89.1601 15.8087 88.8722 15.9212C88.5844 16.0336 88.3685 16.1888 88.2245 16.3867C88.0806 16.5801 88.0064 16.8028 88.0019 17.0547C87.9929 17.2616 88.0334 17.4438 88.1233 17.6012C88.2178 17.7586 88.3527 17.8981 88.5281 18.0195C88.7081 18.1365 88.924 18.2399 89.1759 18.3299C89.4278 18.4199 89.7111 18.4986 90.026 18.5661L91.2135 18.8359C91.8972 18.9844 92.5 19.1823 93.0218 19.4297C93.548 19.6771 93.9888 19.9717 94.3442 20.3136C94.704 20.6554 94.9762 21.049 95.1606 21.4943C95.345 21.9396 95.4395 22.4389 95.444 22.9922C95.4395 23.8648 95.2191 24.6138 94.7828 25.239C94.3464 25.8642 93.719 26.3433 92.9003 26.6761C92.0861 27.009 91.1033 27.1754 89.9518 27.1754C88.7958 27.1754 87.7882 27.0022 86.9291 26.6559C86.0699 26.3095 85.402 25.7833 84.9252 25.0771C84.4484 24.3709 84.2032 23.478 84.1897 22.3984H87.3879C87.4149 22.8438 87.5341 23.2148 87.7455 23.5117C87.9569 23.8086 88.247 24.0335 88.6159 24.1864C88.9892 24.3394 89.421 24.4158 89.9113 24.4158C90.3611 24.4158 90.7435 24.3551 91.0583 24.2337C91.3777 24.1122 91.6228 23.9435 91.7938 23.7276C91.9647 23.5117 92.0524 23.2643 92.0569 22.9854C92.0524 22.7245 91.9714 22.5019 91.814 22.3175C91.6566 22.1286 91.4137 21.9666 91.0853 21.8317C90.7615 21.6922 90.3476 21.564 89.8438 21.4471L88.3999 21.1097C87.2035 20.8353 86.2611 20.3923 85.5729 19.7805C84.8847 19.1643 84.5428 18.3321 84.5473 17.2841C84.5428 16.4295 84.7722 15.6805 85.2355 15.0373C85.6988 14.3941 86.3398 13.8925 87.1585 13.5327C87.9771 13.1728 88.9105 12.9929 89.9585 12.9929C91.0291 12.9929 91.9579 13.1751 92.7451 13.5394C93.5368 13.8993 94.1508 14.4053 94.5871 15.0575C95.0234 15.7098 95.2461 16.4654 95.2551 17.3246H92.0569ZM97.1308 27V13.1818H100.471V18.728H105.916V13.1818H109.249V27H105.916V21.4471H100.471V27H97.1308ZM114.684 13.1818V27H111.344V13.1818H114.684ZM116.78 27V13.1818H122.488C123.523 13.1818 124.416 13.3685 125.167 13.7418C125.923 14.1107 126.505 14.6415 126.914 15.3342C127.324 16.0224 127.528 16.8388 127.528 17.7834C127.528 18.7415 127.319 19.5556 126.901 20.2259C126.483 20.8916 125.889 21.3999 125.12 21.7507C124.35 22.0971 123.44 22.2702 122.387 22.2702H118.777V19.6388H121.766C122.27 19.6388 122.691 19.5736 123.028 19.4432C123.37 19.3082 123.629 19.1058 123.804 18.8359C123.979 18.5616 124.067 18.2107 124.067 17.7834C124.067 17.3561 123.979 17.003 123.804 16.7241C123.629 16.4407 123.37 16.2293 123.028 16.0898C122.686 15.9459 122.266 15.8739 121.766 15.8739H120.12V27H116.78ZM124.56 20.6847L128.001 27H124.357L120.984 20.6847H124.56ZM128.908 15.8942V13.1818H140.588V15.8942H136.398V27H133.105V15.8942H128.908Z" fill="white"/>
</svg>
